<?xml version="1.0" encoding="UTF-8"?>
<svg version="1.1" xmlns="http://www.w3.org/2000/svg" width="438" height="518">
<path d="M0 0 C2.4922314 0.00314829 4.98325687 -0.02035768 7.4753418 -0.0456543 C30.45528632 -0.1364422 52.11830435 4.20361924 72.32495117 15.31567383 C70.94962702 18.51554861 69.48149806 20.23040144 66.76245117 22.37817383 C49.07567974 37.474297 40.63082255 59.3119131 35.32495117 81.31567383 C33.1572635 79.22540358 31.23586982 77.19517374 29.44213867 74.76879883 C27.0011338 71.94047584 24.80165326 70.6860896 21.44995117 69.06567383 C20.4419043 68.56551758 19.43385742 68.06536133 18.39526367 67.55004883 C6.94853208 62.94805496 -5.95021933 64.78318189 -17.07739258 69.28833008 C-22.70223892 72.278633 -25.29971276 76.49290339 -28.11254883 82.00317383 C-28.44279053 82.64988037 -28.77303223 83.29658691 -29.11328125 83.96289062 C-34.87722439 96.25558171 -34.00148877 109.79410874 -34.01098633 123.04614258 C-34.01742626 125.16685574 -34.02415548 127.28756804 -34.03115845 129.40827942 C-34.0430901 133.84203142 -34.04684357 138.27570575 -34.0456543 142.70947266 C-34.04545146 148.34979589 -34.07273635 153.98961333 -34.10719872 159.62981701 C-34.12959833 164.00800294 -34.13348784 168.3860697 -34.13243484 172.76430702 C-34.13477186 174.84162448 -34.14348617 176.91894619 -34.15909958 178.99620628 C-34.2775748 196.38710611 -33.6474561 213.88997532 -20.92504883 227.19067383 C-10.23966885 234.17726843 1.13901114 235.51826328 13.63745117 233.25317383 C22.56881233 230.9953577 28.10779937 227.7610396 33.13745117 219.94067383 C40.45044022 205.77607948 40.95153757 191.4060861 41.07495117 175.81567383 C41.15745117 169.38067383 41.23995117 162.94567383 41.32495117 156.31567383 C67.39495117 156.31567383 93.46495117 156.31567383 120.32495117 156.31567383 C121.76750377 211.13267266 121.76750377 211.13267266 119.69995117 219.19067383 C119.52101318 219.92914551 119.3420752 220.66761719 119.15771484 221.4284668 C118.57962767 223.73447629 117.96198314 226.02528763 117.32495117 228.31567383 C117.01146729 229.44972656 117.01146729 229.44972656 116.69165039 230.60668945 C111.79382526 247.79126843 104.13577466 261.823248 91.32495117 274.31567383 C90.60823242 275.04141602 89.89151367 275.7671582 89.15307617 276.51489258 C66.66426306 298.03144497 34.0629195 303.76689538 4.13745117 303.62817383 C3.3216861 303.62635101 2.50592102 303.6245282 1.66543579 303.62265015 C-10.31490243 303.57756656 -22.00242542 303.27607956 -33.67504883 300.31567383 C-34.35148437 300.14938477 -35.02791992 299.9830957 -35.72485352 299.81176758 C-61.14403183 293.32789593 -85.11882604 278.1950044 -98.78881836 255.46362305 C-102.95305626 248.11441298 -106.2135895 240.41098492 -108.98754883 232.44067383 C-109.33317871 231.47254761 -109.33317871 231.47254761 -109.68579102 230.48486328 C-115.06459262 214.01475162 -115.12467956 197.0410468 -115.07348633 179.90942383 C-115.07551344 177.48962314 -115.07843014 175.06982304 -115.08218384 172.65002441 C-115.08657721 167.60736202 -115.08027317 162.56486033 -115.06616211 157.5222168 C-115.04907235 151.10775708 -115.05892966 144.69367416 -115.0768795 138.27922821 C-115.08779855 133.29104857 -115.08423401 128.30295604 -115.07649612 123.31477356 C-115.07451649 120.95164443 -115.07687324 118.58850699 -115.08393478 116.22538757 C-115.12275656 99.58911102 -114.62344923 83.06287811 -109.05004883 67.19067383 C-108.79698975 66.45824463 -108.54393066 65.72581543 -108.28320312 64.97119141 C-99.95100723 42.00142088 -83.60188704 23.26564088 -61.67504883 12.31567383 C-41.98560454 3.26681516 -21.56364862 -0.05665257 0 0 Z " fill="#F9F9F9" transform="translate(114.675048828125,97.684326171875)"/>
<path d="M0 0 C0.77511932 -0.00067474 1.55023865 -0.00134949 2.34884644 -0.00204468 C31.40614185 0.03799615 64.12073433 3.50315339 86.375 24.25 C87.12910156 24.91386719 87.88320313 25.57773438 88.66015625 26.26171875 C110.42655565 46.46004135 116.22398959 76.85241093 117.375 105.25 C117.73874666 118.09501205 117.66528106 130.95273937 117.63574219 143.80151367 C117.62434227 148.80852065 117.63093616 153.81531316 117.64288712 158.82231236 C117.65020701 162.7529199 117.64777219 166.68347883 117.64263153 170.61408806 C117.64132323 172.45755986 117.64284019 174.30103649 117.64759064 176.14450264 C117.6818558 193.16239664 117.41314366 210.82766529 113.0625 227.375 C112.8452124 228.23915527 112.6279248 229.10331055 112.40405273 229.99365234 C110.65748419 236.69669919 108.46313228 243.03675181 105.375 249.25 C104.69824219 250.6421875 104.69824219 250.6421875 104.0078125 252.0625 C92.41307835 274.62522592 72.30024501 288.8639475 48.8125 297.0625 C33.03520733 302.00538599 17.46207662 303.48579693 1 303.5 C0.29423828 303.50067474 -0.41152344 303.50134949 -1.13867188 303.50204468 C-25.59062716 303.46504865 -46.09730777 298.78678187 -67.625 287.25 C-66.24967585 284.05012522 -64.78154689 282.33527239 -62.0625 280.1875 C-46.90172314 267.216005 -39.1524613 249.95124407 -33.625 231.25 C-33.2846875 230.14140625 -32.944375 229.0328125 -32.59375 227.890625 C-31.91980507 225.68158328 -31.26093904 223.47020823 -30.625 221.25 C-30.08875 221.971875 -29.5525 222.69375 -29 223.4375 C-23.41841644 230.04727 -17.19631371 234.56743407 -8.39208984 235.48193359 C3.80073623 236.2447372 15.29800453 236.03914797 24.96972656 227.67553711 C27.26211043 225.35009768 28.60898933 222.78202134 30.0625 219.875 C30.62324219 218.79476562 31.18398438 217.71453125 31.76171875 216.6015625 C37.19676475 203.38213527 36.83542848 189.14847462 36.80859375 175.12890625 C36.81316763 173.01390925 36.81847674 170.89891372 36.82447815 168.78392029 C36.83335852 164.37403281 36.83104404 159.96432693 36.82104492 155.55444336 C36.80955679 149.94559416 36.82979101 144.33737474 36.85896206 138.72860813 C36.8774394 134.36757019 36.87700885 130.00668004 36.87132454 125.64561272 C36.87117276 123.57946832 36.87709631 121.51331297 36.88961601 119.4472065 C36.97998096 102.09614747 36.41969895 85.52298756 23.625 72.4375 C13.60791307 65.69522995 2.4558074 64.1426415 -9.4375 65.875 C-17.3746975 67.64919709 -23.67184001 71.00754369 -28.28125 77.83203125 C-36.98443419 93.49270279 -36.9574916 110.16518196 -37.25 127.5625 C-37.435625 137.3078125 -37.435625 137.3078125 -37.625 147.25 C-63.695 147.25 -89.765 147.25 -116.625 147.25 C-116.686875 139.598125 -116.74875 131.94625 -116.8125 124.0625 C-116.85346802 120.51205933 -116.85346802 120.51205933 -116.89526367 116.88989258 C-117.11332329 84.2451642 -111.07803327 53.27573462 -87.75 29 C-64.15157281 6.33120782 -31.65525213 0.02476247 0 0 Z " fill="#F7F7F7" transform="translate(272.625,97.75)"/>
<path d="M0 0 C5.48307628 2.43692279 8.50597024 6.6641674 11 12 C13.35831379 21.29892082 12.55196089 30.50670711 8 39 C5.18233379 42.24894165 1.94698039 44.83696783 -2.42578125 45.203125 C-6.52841655 45.26974425 -10.12068651 45.2691776 -14.0625 44.0625 C-16.65336505 41.30448236 -16.79948935 38.85165337 -17.3984375 35.1875 C-17.87605218 32.68481111 -17.87605218 32.68481111 -20.625 30.625 C-23.8646802 27.04430083 -23.5892472 24.54218025 -23.35546875 19.84765625 C-22.44297166 12.53765211 -20.21964459 7.21964459 -15 2 C-10.31983649 -0.91633315 -5.33434243 -0.60476557 0 0 Z M-10.3125 9.625 C-14.43416139 15.42585677 -14.67020783 21.08467371 -14 28 C-12.66148547 31.56937209 -11.19395402 34.78880106 -8 37 C-5.58736705 37.75085106 -5.58736705 37.75085106 -3 37 C1.46125476 32.43735309 3.14375775 29.10925042 3.3125 22.8125 C3.24278058 17.56262767 2.6344574 13.0053204 -1 9 C-4.97302783 7.58106149 -6.79865085 7.1558087 -10.3125 9.625 Z " fill="#F2F2F2" transform="translate(426,374)"/>
<path d="M0 0 C3.2277235 2.12736321 4.89407493 3.38617679 6.75 6.8125 C7.52704582 12.00602051 7.69632079 16.15643861 5.046875 20.79296875 C2.67041312 23.91712697 0.16798975 26.80887948 -2.5 29.6875 C-3.39203125 30.65429688 -4.2840625 31.62109375 -5.203125 32.6171875 C-5.87859375 33.34164062 -6.5540625 34.06609375 -7.25 34.8125 C-3.785 35.3075 -3.785 35.3075 -0.25 35.8125 C0.41 38.4525 1.07 41.0925 1.75 43.8125 C-5.84 43.8125 -13.43 43.8125 -21.25 43.8125 C-21.25 35.8125 -21.25 35.8125 -18.8359375 32.6875 C-17.78336252 31.70971805 -16.71205848 30.75179521 -15.625 29.8125 C-14.51869084 28.78494616 -13.41579778 27.75370175 -12.31640625 26.71875 C-11.78547363 26.22503906 -11.25454102 25.73132813 -10.70751953 25.22265625 C-6.93670417 21.5743766 -2.88086274 17.20156475 -2.25 11.8125 C-2.91 10.8225 -3.57 9.8325 -4.25 8.8125 C-8.69393244 8.21427833 -10.7809375 8.53959091 -14.6875 10.8125 C-15.533125 11.4725 -16.37875 12.1325 -17.25 12.8125 C-18.9 11.4925 -20.55 10.1725 -22.25 8.8125 C-21.9240051 5.76988092 -21.27104739 4.8323781 -19 2.6875 C-12.87208982 -1.49062058 -7.01945722 -2.56480167 0 0 Z " fill="#F2F2F2" transform="translate(391.25,375.1875)"/>
<path d="M0 0 C1.23234375 -0.02578125 2.4646875 -0.0515625 3.734375 -0.078125 C7.49052044 0.27244857 9.28730011 0.96936052 12.25 3.25 C14.59168764 6.76253146 14.74623677 8.11469356 14.25 12.25 C12.45006226 14.94990662 11.166227 16.7918865 8.25 18.25 C8.745 18.724375 9.24 19.19875 9.75 19.6875 C11.97348335 23.48595071 11.9332372 26.95097942 11.25 31.25 C9.40171384 34.59113268 8.12615426 35.87580912 4.625 37.37109375 C0.59571941 38.42038557 -2.98847328 38.47224204 -7.125 38.375 C-8.22908203 38.36146484 -8.22908203 38.36146484 -9.35546875 38.34765625 C-11.1537888 38.32430144 -12.95193911 38.28843836 -14.75 38.25 C-14.05591525 30.26802536 -12.45259569 22.57230284 -10.75 14.75 C-10.47671875 13.46351562 -10.2034375 12.17703125 -9.921875 10.8515625 C-7.60219891 0.09463318 -7.60219891 0.09463318 0 0 Z M-2.75 5.25 C-4.17258812 9.07320557 -4.99042276 12.16281305 -4.75 16.25 C-0.58978592 16.46153631 2.33997426 16.59125965 6.25 15.125 C8.5615315 13.34967933 8.5615315 13.34967933 8.6875 10.1875 C8.53056299 7.13374462 8.53056299 7.13374462 6.25 5.25 C4.03927023 5.00746187 4.03927023 5.00746187 1.625 5.125 C0.39910156 5.15207031 0.39910156 5.15207031 -0.8515625 5.1796875 C-1.79128906 5.21449219 -1.79128906 5.21449219 -2.75 5.25 Z M-6.75 20.25 C-7.08820166 21.8323006 -7.42035939 23.41589375 -7.75 25 C-7.935625 25.88171875 -8.12125 26.7634375 -8.3125 27.671875 C-8.86153675 30.47143965 -8.86153675 30.47143965 -8.75 34.25 C-3.13410702 34.54047722 0.34825932 34.35842092 5.25 31.25 C6.66441874 28.42116253 6.56900332 26.37623255 6.25 23.25 C4.88926464 21.16313108 4.88926464 21.16313108 2.25 20.25 C-0.7679637 20.01625066 -3.73010124 20.07577507 -6.75 20.25 Z " fill="#FFFFFF" transform="translate(61.75,6.75)"/>
<path d="M0 0 C4.30836953 3.13335966 6.25677876 6.91875269 7.09765625 12.171875 C7.38494235 19.21662974 5.78162465 26.72866713 1.5 32.4375 C-2.63758541 36.29297731 -6.67517363 38.11680185 -12.3125 38.375 C-17.31072404 37.89897866 -20.60094642 36.76278141 -24.0625 33.0625 C-27.09596836 27.79384442 -26.90279887 21.53349847 -25.82421875 15.6953125 C-23.89178044 8.84286253 -19.91691172 3.25656106 -13.8125 -0.5 C-8.81776554 -1.47458233 -4.81856782 -1.48263625 0 0 Z M-17.25 9 C-20.86900405 14.91103994 -21.26416486 21.18094869 -20.25 28 C-18.43328877 31.40282421 -18.43328877 31.40282421 -15.25 33 C-10.73012575 33.82179532 -8.88840512 33.40514171 -5 30.9375 C-0.089502 26.21081743 0.93608819 21.48469756 1.1875 14.875 C1.07191848 11.18563785 0.81374425 9.13811253 -0.75 5.75 C-3.60292354 3.75295352 -5.73834341 3.27945755 -9.22265625 3.51953125 C-12.8779617 4.38581751 -14.75953902 6.27786823 -17.25 9 Z " fill="#FFFFFF" transform="translate(118.25,467)"/>
<path d="M0 0 C1.98 0 3.96 0 6 0 C9.3 8.91 12.6 17.82 16 27 C17.98 18.09 19.96 9.18 22 0 C23.65 0 25.3 0 27 0 C26.45888492 8.2368418 24.79037336 16.09444911 22.9375 24.125 C22.65583984 25.36765625 22.37417969 26.6103125 22.08398438 27.890625 C21.39465632 30.92834184 20.6998882 33.9647021 20 37 C18.02 37 16.04 37 14 37 C10.7 28.42 7.4 19.84 4 11 C2.79852736 14.60441792 1.73930105 17.80560083 0.96484375 21.453125 C0.79533203 22.236875 0.62582031 23.020625 0.45117188 23.828125 C0.28166016 24.62734375 0.11214844 25.4265625 -0.0625 26.25 C-0.40511239 27.85989614 -0.75005392 29.46929889 -1.09765625 31.078125 C-1.24726807 31.78356445 -1.39687988 32.48900391 -1.55102539 33.21582031 C-2 35 -2 35 -3 37 C-4.65 37 -6.3 37 -8 37 C-7.23419174 33.082334 -6.46140149 29.1660746 -5.6875 25.25 C-5.47416016 24.15816406 -5.26082031 23.06632812 -5.04101562 21.94140625 C-3.57901328 14.56593172 -1.89321185 7.27664736 0 0 Z " fill="#FFFFFF" transform="translate(199,467)"/>
<path d="M0 0 C1.98 0 3.96 0 6 0 C9.3 8.91 12.6 17.82 16 27 C17.98 18.09 19.96 9.18 22 0 C23.65 0 25.3 0 27 0 C26.45888492 8.2368418 24.79037336 16.09444911 22.9375 24.125 C22.65583984 25.36765625 22.37417969 26.6103125 22.08398438 27.890625 C21.39465632 30.92834184 20.6998882 33.9647021 20 37 C18.02 37 16.04 37 14 37 C10.7 28.42 7.4 19.84 4 11 C2.79852736 14.60441792 1.73930105 17.80560083 0.96484375 21.453125 C0.79533203 22.236875 0.62582031 23.020625 0.45117188 23.828125 C0.28166016 24.62734375 0.11214844 25.4265625 -0.0625 26.25 C-0.40511239 27.85989614 -0.75005392 29.46929889 -1.09765625 31.078125 C-1.24726807 31.78356445 -1.39687988 32.48900391 -1.55102539 33.21582031 C-2 35 -2 35 -3 37 C-4.65 37 -6.3 37 -8 37 C-7.23419174 33.082334 -6.46140149 29.1660746 -5.6875 25.25 C-5.47416016 24.15816406 -5.26082031 23.06632812 -5.04101562 21.94140625 C-3.57901328 14.56593172 -1.89321185 7.27664736 0 0 Z " fill="#FFFFFF" transform="translate(149,467)"/>
<path d="M0 0 C2.20770805 -0.08165496 4.41630425 -0.13948488 6.625 -0.1875 C7.85476562 -0.22230469 9.08453125 -0.25710937 10.3515625 -0.29296875 C15.14325074 0.09180279 18.55948271 1.41046368 21.8125 5 C25.0673287 10.48181675 24.67024557 17.13268309 23.609375 23.25390625 C21.85547005 28.99906926 17.97663723 32.7752088 13 36 C8.42811357 37.93842884 4.56538825 38.21821487 -0.375 38.125 C-1.62023437 38.10695312 -2.86546875 38.08890625 -4.1484375 38.0703125 C-5.08945313 38.04710937 -6.03046875 38.02390625 -7 38 C-6.44322254 29.61285113 -4.7559147 21.56841382 -2.9375 13.375 C-2.65248001 12.07172706 -2.36797132 10.76834219 -2.08398438 9.46484375 C-1.39432225 6.30876282 -0.69955412 3.15390034 0 0 Z M5 5 C2.86010842 9.69426666 1.90803864 14.53887135 0.875 19.5625 C0.69324219 20.41263672 0.51148438 21.26277344 0.32421875 22.13867188 C-0.46120087 25.90337116 -1 29.12295179 -1 33 C3.62186951 33.36974956 7.05541223 33.44556027 11.3125 31.4375 C16.48733866 26.74404168 18.60185845 22.01159181 19.10546875 15.1484375 C18.94407998 11.86088851 17.83495938 9.68690481 16 7 C12.91111478 4.94074319 12.29064073 4.7609626 8.8125 4.875 C7.554375 4.91625 6.29625 4.9575 5 5 Z " fill="#FFFFFF" transform="translate(179,7)"/>
<path d="M0 0 C1.65 0 3.3 0 5 0 C4.07011967 5.75734416 3.13087674 11.49120191 1.875 17.1875 C0.97122689 21.66298445 0.09209155 26.4702202 1 31 C4.11865284 33.0791019 4.53739522 33.28159374 8 32.875 C8.680625 32.81054688 9.36125 32.74609375 10.0625 32.6796875 C12.77951993 31.72653938 13.47242811 30.42921804 15 28 C15.93595638 25.03483706 15.93595638 25.03483706 16.5703125 21.73828125 C16.82683594 20.53751953 17.08335937 19.33675781 17.34765625 18.09960938 C17.60417969 16.84986328 17.86070312 15.60011719 18.125 14.3125 C18.64535048 11.82877834 19.16862436 9.3456667 19.6953125 6.86328125 C20.0358667 5.21259644 20.0358667 5.21259644 20.38330078 3.52856445 C21 1 21 1 22 0 C23.66617115 -0.04063832 25.33388095 -0.042721 27 0 C26.24056406 4.00224993 25.46539637 8.00130061 24.6875 12 C24.47416016 13.12535156 24.26082031 14.25070313 24.04101562 15.41015625 C20.68089869 32.56179789 20.68089869 32.56179789 15 37 C10.06606849 38.64464384 5.14357684 38.56842763 0 38 C-3.25 36.25 -3.25 36.25 -5 33 C-6.74112258 23.44778623 -4.39109208 8.78218416 0 0 Z " fill="#FFFFFF" transform="translate(227,7)"/>
<path d="M0 0 C1.98 0 3.96 0 6 0 C6.57447384 4.44682473 7.14397158 8.89425079 7.70898438 13.34228516 C7.90164729 14.85352526 8.09563888 16.36459663 8.29101562 17.87548828 C8.57255895 20.05457616 8.84922568 22.23423793 9.125 24.4140625 C9.29257813 25.7232666 9.46015625 27.0324707 9.6328125 28.38134766 C9.96165801 31.62213761 10.07044439 34.74634962 10 38 C8.35 38 6.7 38 5 38 C4.01751476 33.9472484 3.91840426 30.16138263 4 26 C-0.21830026 25.70649367 -3.9413384 25.74005925 -8 27 C-10.83728331 30.34653929 -12.46418525 33.91123002 -14 38 C-15.98 38 -17.96 38 -20 38 C-13.72446134 25.11668829 -6.92453954 12.5446568 0 0 Z M1 8 C-0.00508801 9.78881736 -1.00392736 11.58114696 -2 13.375 C-2.556875 14.37273438 -3.11375 15.37046875 -3.6875 16.3984375 C-5.15014268 18.81195509 -5.15014268 18.81195509 -5 21 C-2.36 21 0.28 21 3 21 C2.67 16.71 2.34 12.42 2 8 C1.67 8 1.34 8 1 8 Z " fill="#FFFFFF" transform="translate(106,7)"/>
<path d="M0 0 C6.27 0 12.54 0 19 0 C19 1.32 19 2.64 19 4 C14.05 4 9.1 4 4 4 C3.7834375 6.165625 3.7834375 6.165625 3.5625 8.375 C3.125 12.75 3.125 12.75 2 15 C6.29 15 10.58 15 15 15 C14.67 16.65 14.34 18.3 14 20 C9.71 20 5.42 20 1 20 C0.34 23.96 -0.32 27.92 -1 32 C3.29 32.33 7.58 32.66 12 33 C12 34.32 12 35.64 12 37 C5.4 37 -1.2 37 -8 37 C-7.02406605 32.05153075 -6.04640615 27.10347034 -5.06420898 22.15625 C-4.73048684 20.4725365 -4.39779973 18.78861751 -4.06616211 17.10449219 C-3.58978739 14.68630304 -3.10971701 12.26887301 -2.62890625 9.8515625 C-2.4069735 8.71867294 -2.4069735 8.71867294 -2.18055725 7.56289673 C-1.11387171 2.22774341 -1.11387171 2.22774341 0 0 Z " fill="#FFFFFF" transform="translate(249,467)"/>
<path d="M0 0 C1.56427734 0.00966797 1.56427734 0.00966797 3.16015625 0.01953125 C5.9375 0.1875 5.9375 0.1875 8.9375 1.1875 C8.6075 2.8375 8.2775 4.4875 7.9375 6.1875 C7.17824219 6.09210937 6.41898437 5.99671875 5.63671875 5.8984375 C4.14591797 5.73214844 4.14591797 5.73214844 2.625 5.5625 C1.14580078 5.38847656 1.14580078 5.38847656 -0.36328125 5.2109375 C-3.28907416 4.93273005 -3.28907416 4.93273005 -6.0625 7.1875 C-7.23862195 8.97421071 -7.23862195 8.97421071 -7.0625 11.1875 C-4.98460484 13.6550005 -2.83071477 15.66004532 -0.16796875 17.48828125 C2.76531087 19.60908424 4.63973611 21.02266265 5.55859375 24.6171875 C5.78660245 29.27409242 5.47201982 31.49825075 2.5625 35.25 C-1.61182741 38.33105118 -3.93311499 38.32306335 -9.125 38.3125 C-10.39472656 38.31507812 -11.66445313 38.31765625 -12.97265625 38.3203125 C-16.0625 38.1875 -16.0625 38.1875 -17.0625 37.1875 C-17.10313832 35.52132885 -17.105221 33.85361905 -17.0625 32.1875 C-16.32644531 32.29449219 -15.59039062 32.40148438 -14.83203125 32.51171875 C-8.76796125 33.29815549 -8.76796125 33.29815549 -2.875 32.0625 C-0.87896668 30.30698051 -0.87896668 30.30698051 -0.4375 27.75 C-1.31860569 24.13746669 -3.03954744 23.29042352 -6.0625 21.1875 C-11.8451087 16.62228261 -11.8451087 16.62228261 -13.0625 14.1875 C-13.4376455 9.21682218 -13.22128799 6.13598498 -10.0625 2.1875 C-6.71543905 0.01153261 -3.93894424 -0.05369069 0 0 Z " fill="#FFFFFF" transform="translate(324.0625,6.8125)"/>
<path d="M0 0 C1.56427734 0.02320313 1.56427734 0.02320313 3.16015625 0.046875 C5.9375 0.25 5.9375 0.25 8.9375 1.25 C8.6075 2.9 8.2775 4.55 7.9375 6.25 C7.17824219 6.15460937 6.41898437 6.05921875 5.63671875 5.9609375 C4.14591797 5.79464844 4.14591797 5.79464844 2.625 5.625 C1.14580078 5.45097656 1.14580078 5.45097656 -0.36328125 5.2734375 C-3.28907416 4.99523005 -3.28907416 4.99523005 -6.0625 7.25 C-7.06734655 10.02917296 -7.06734655 10.02917296 -6.0625 13.25 C-3.9444993 15.25538717 -1.72840196 16.88981605 0.67578125 18.5390625 C3.00213856 20.29889757 4.47326346 21.7303722 5.9375 24.25 C6.35886161 28.60151631 5.68526237 32.25298351 3.0625 35.75 C-0.77715999 38.46034823 -4.05125971 38.38522065 -8.625 38.375 C-9.78128906 38.37757812 -10.93757813 38.38015625 -12.12890625 38.3828125 C-15.0625 38.25 -15.0625 38.25 -17.0625 37.25 C-17.0625 35.6 -17.0625 33.95 -17.0625 32.25 C-16.381875 32.415 -15.70125 32.58 -15 32.75 C-10.63016384 33.4938019 -6.76605712 33.99257618 -2.625 32.1875 C-0.29606006 29.29961448 -0.79199205 26.83423038 -1.0625 23.25 C-1.76375 23.023125 -2.465 22.79625 -3.1875 22.5625 C-6.85409943 20.88861765 -9.26668487 19.17289763 -12.0625 16.25 C-13.51010485 12.29907847 -13.5080789 9.30531846 -11.875 5.4375 C-8.21705024 1.02273305 -5.77929335 -0.14322908 0 0 Z " fill="#FFFFFF" transform="translate(284.0625,6.75)"/>
<path d="M0 0 C-0.33 1.32 -0.66 2.64 -1 4 C-1.86882812 3.94199219 -2.73765625 3.88398438 -3.6328125 3.82421875 C-11.04963351 3.2542162 -11.04963351 3.2542162 -17.625 6.0625 C-22.54326675 12.1456194 -23.33372521 16.79624827 -23.49609375 24.44921875 C-22.83457396 27.85057639 -21.81051017 28.99780185 -19 31 C-15.95559865 31.48195275 -15.95559865 31.48195275 -12.75 31.25 C-11.13351563 31.19585937 -11.13351563 31.19585937 -9.484375 31.140625 C-8.66453125 31.09421875 -7.8446875 31.0478125 -7 31 C-7 32.65 -7 34.3 -7 36 C-12.59701253 37.57020261 -17.86715711 37.75044472 -23.375 35.8125 C-26.95452075 33.34092615 -28.47377627 31.25399163 -29.46875 26.9921875 C-30.83855355 18.05733256 -28.81235886 11.18745495 -23.58203125 3.8828125 C-17.78623561 -3.01489984 -7.81743226 -3.90871613 0 0 Z " fill="#FFFFFF" transform="translate(78,468)"/>
<path d="M0 0 C-0.33 1.32 -0.66 2.64 -1 4 C-1.79664063 3.95359375 -2.59328125 3.9071875 -3.4140625 3.859375 C-10.18306748 3.62192138 -10.18306748 3.62192138 -16.5625 5.625 C-21.6244391 10.55714579 -22.59375806 15.58725336 -23.078125 22.43359375 C-22.96297251 26.21635297 -21.61411262 28.38588738 -19 31 C-16.81360547 31.07258946 -14.62499611 31.08373783 -12.4375 31.0625 C-11.23996094 31.05347656 -10.04242188 31.04445313 -8.80859375 31.03515625 C-7.41833984 31.01775391 -7.41833984 31.01775391 -6 31 C-6.33 32.65 -6.66 34.3 -7 36 C-12.62994973 37.87664991 -18.09029508 37.93749151 -23.4375 35.3125 C-26.76658225 32.30820627 -28.72836762 29.73012693 -29.43359375 25.23828125 C-29.44403772 17.41574585 -28.68813797 10.21251778 -23.3515625 4.1171875 C-16.72622158 -1.87165778 -8.21123158 -4.69213233 0 0 Z " fill="#FFFFFF" transform="translate(312,468)"/>
<path d="M0 0 C8.58 0 17.16 0 26 0 C25.67 1.32 25.34 2.64 25 4 C21.7 4 18.4 4 15 4 C14.85900879 4.75095947 14.71801758 5.50191895 14.57275391 6.27563477 C13.92687712 9.70523522 13.27598343 13.13386534 12.625 16.5625 C12.40328125 17.74392578 12.1815625 18.92535156 11.953125 20.14257812 C10.86582727 25.8508912 9.74284353 31.45384839 8 37 C6.35 37 4.7 37 3 37 C3.73265438 30.06083669 5.10627095 23.32021002 6.5625 16.5 C6.79646484 15.39140625 7.03042969 14.2828125 7.27148438 13.140625 C7.8447367 10.42645073 8.42097824 7.71294824 9 5 C6.03 4.67 3.06 4.34 0 4 C0 2.68 0 1.36 0 0 Z " fill="#FFFFFF" transform="translate(328,467)"/>
<path d="M0 0 C1.65 0 3.3 0 5 0 C4.44890325 7.54385572 3.11104653 14.7557699 1.4375 22.125 C1.20353516 23.176875 0.96957031 24.22875 0.72851562 25.3125 C0.15751903 27.87615816 -0.42050549 30.43824935 -1 33 C3.62 33 8.24 33 13 33 C12.67 34.65 12.34 36.3 12 38 C5.73 38 -0.54 38 -7 38 C-6.36586955 29.60379178 -4.76022513 21.58783575 -2.9375 13.375 C-2.65248001 12.07172706 -2.36797132 10.76834219 -2.08398438 9.46484375 C-1.39432225 6.30876282 -0.69955412 3.15390034 0 0 Z " fill="#FFFFFF" transform="translate(141,7)"/>
<path d="M0 0 C1.65 0 3.3 0 5 0 C4.30591525 7.98197464 2.70259569 15.67769716 1 23.5 C0.72671875 24.78648438 0.4534375 26.07296875 0.171875 27.3984375 C-1.87078841 36.87078841 -1.87078841 36.87078841 -3 38 C-4.66617115 38.04063832 -6.33388095 38.042721 -8 38 C-2.64974842 10.83596307 -2.64974842 10.83596307 0 0 Z " fill="#FFFFFF" transform="translate(355,7)"/>
<path d="M0 0 C2.191985 1.58918912 2.8969765 2.48766694 3.43359375 5.15625 C3.44402315 11.41388944 3.44402315 11.41388944 1.4375 14.0625 C-1.94782605 15.36454848 -4.40336722 15.4495791 -8 15 C-10.4375 13.4375 -10.4375 13.4375 -12 11 C-12.55802097 7.09385318 -12.58392818 4.94888329 -10.5 1.5625 C-6.75107996 -0.78057502 -4.38964238 -0.48773804 0 0 Z " fill="#F2F2F2" transform="translate(405,405)"/>
</svg>
