<?xml version="1.0" encoding="UTF-8"?>
<svg id="Camada_2" data-name="Camada 2" xmlns="http://www.w3.org/2000/svg" xmlns:xlink="http://www.w3.org/1999/xlink" viewBox="0 0 437.04 518">
  <defs>
    <style>
      .cls-1 {
        fill: url(#Gradiente_sem_nome_16);
      }

      .cls-2 {
        fill: #f2f2f2;
      }

      .cls-3 {
        fill: #fff;
        font-family: OpenSans-Italic, 'Open Sans';
        font-size: 51.87px;
        font-style: italic;
        letter-spacing: .26em;
      }

      .cls-4 {
        fill: url(#Gradiente_sem_nome_16-2);
      }
    </style>
    <linearGradient id="Gradiente_sem_nome_16" data-name="Gradiente sem nome 16" x1="551.2" y1="-.14" x2="-145.34" y2="623.08" gradientUnits="userSpaceOnUse">
      <stop offset="0" stop-color="#ee9b1f"/>
      <stop offset=".72" stop-color="#ff6c00"/>
    </linearGradient>
    <linearGradient id="Gradiente_sem_nome_16-2" data-name="Gradiente sem nome 16" x1="482.38" y1="-77.06" x2="-214.16" y2="546.16" xlink:href="#Gradiente_sem_nome_16"/>
  </defs>
  <g id="Camada_1-2" data-name="Camada 1">
    <g>
      <g>
        <text class="cls-3" transform="translate(44.64 44.45)"><tspan x="0" y="0">BALDUSSI</tspan></text>
        <text class="cls-3" transform="translate(44.64 504.1)"><tspan x="0" y="0">CONNECT</tspan></text>
      </g>
      <g>
        <g>
          <path class="cls-1" d="M362.01,126.45c-17.83-18.71-47.75-28.06-89.7-28.06-19.98,0-37.18,2.63-51.69,7.84-9.6,3.46-18.08,7.84-25.43,13.15-3.8,2.73-7.31,5.7-10.52,8.92-9.4,9.4-16.52,20.8-21.24,34.11-4.73,13.25-7.06,27.97-7.06,44.05v38.15h78.15v-35.52c0-3.65.19-7.21.68-10.57,1.07-8.53,3.56-16.13,7.45-22.75,5.41-9.26,15.3-13.89,29.67-13.89,12.57,0,22.02,3.85,28.31,11.55,6.29,7.7,9.45,18.32,9.45,31.96v82.39c0,13.3-2.83,24.46-8.43,33.57-5.55,9.11-15.35,13.64-29.33,13.64s-24.26-4.53-29.67-13.64c-.27-.44-.47-.93-.72-1.39-.92,4.62-1.98,9.18-3.28,13.6-4.59,15.52-12.2,29.16-22.62,40.56-3.29,3.59-7,6.9-11.04,10.1,4.86,2.88,10.05,5.47,15.65,7.68,14.52,5.8,31.72,8.67,51.69,8.67,21.29,0,39.32-2.87,54.03-8.67,14.67-5.75,26.65-13.69,35.91-23.87,9.26-10.13,16.03-22.12,20.22-35.91,4.19-13.84,6.29-28.94,6.29-45.41v-78.15c0-36.01-8.92-63.39-26.75-82.1Z"/>
          <path class="cls-4" d="M229.29,330.79c3.02-10.28,6.09-21.12,5.8-32.6-.08-3.19-.58-6.48-.58-9.89v-33.96h-78.15v30.55c0,13.3-2.87,24.65-8.67,34.11-5.75,9.4-15.79,14.13-30.16,14.13s-23.87-4.34-29.62-13.11c-5.75-8.72-8.67-19.39-8.67-32.01v-81.32c0-12.57,2.83-23.24,8.43-31.96,5.55-8.77,15.54-13.16,29.87-13.16s24.41,4.73,30.16,14.18c.56.91.96,1.93,1.47,2.88,1.25-6.78,2.89-13.33,5.09-19.49,5.19-14.61,13.11-27.31,23.54-37.73,2.68-2.68,5.61-5.16,8.65-7.54-5.1-2.88-10.54-5.45-16.43-7.64-14.67-5.41-32.21-8.09-52.47-8.09s-37.22,2.58-51.94,7.84c-14.67,5.26-26.85,12.67-36.44,22.31-9.6,9.6-16.86,21.05-21.78,34.35-4.87,13.3-7.36,27.97-7.36,44.05v81.32c0,16.13,2.48,31.04,7.36,44.87,4.92,13.84,12.18,25.73,21.78,35.66,9.6,9.99,21.78,17.83,36.44,23.63,14.71,5.75,32.01,8.62,51.94,8.62,21.34,0,39.51-2.97,54.57-8.92,9.16-3.61,17.3-8.04,24.36-13.3,4.53-3.36,8.67-7.02,12.38-11.06,9.45-10.33,16.27-22.56,20.46-36.74Z"/>
        </g>
        <g>
          <path class="cls-2" d="M400.35,419.61c-4.1,0-7.3-3.17-7.3-7.23s3.21-7.31,7.3-7.31,7.31,3.14,7.31,7.31-3.14,7.23-7.31,7.23Z"/>
          <path class="cls-2" d="M369.98,412.74v6.03h22.71c-1.44-1.71-2.3-3.92-2.3-6.37,0-.22.02-.44.03-.66h-9.95l11.55-12.24c2.89-3.08,5.59-6.78,5.59-11.99,0-7.41-5.71-12.81-13.94-12.81-6.21,0-11.68,3.2-14.63,7.91l5.15,4.83c2.32-3.2,5.4-5.27,9.04-5.27,3.83,0,6.65,2.32,6.65,5.78,0,2.89-2.2,5.59-4.39,8.1l-15.51,16.7Z"/>
          <path class="cls-2" d="M420.19,374.04c-9.9,0-16.85,9.15-16.85,22.36,0,2.38.23,4.62.66,6.7,3.73,1.43,6.31,5,6.31,9.29,0,.81-.1,1.59-.27,2.33,2.75,2.57,6.21,4.04,10.15,4.04,9.9,0,16.85-9.15,16.85-22.36s-6.95-22.36-16.85-22.36ZM420.19,411.56c-5.39,0-9.21-6.2-9.21-15.16s3.82-15.16,9.21-15.16,9.21,6.2,9.21,15.16-3.82,15.16-9.21,15.16Z"/>
        </g>
      </g>
    </g>
  </g>
</svg>